<?xml version="1.0" encoding="UTF-8" standalone="no"?>
<!-- Created with Inkscape (http://www.inkscape.org/) -->

<svg
   xmlns:dc="http://purl.org/dc/elements/1.1/"
   xmlns:cc="http://creativecommons.org/ns#"
   xmlns:rdf="http://www.w3.org/1999/02/22-rdf-syntax-ns#"
   xmlns:svg="http://www.w3.org/2000/svg"
   xmlns="http://www.w3.org/2000/svg"
   version="1.1"
   width="402.6745"
   height="608.53125"
   id="svg2">
  <defs
     id="defs4" />
  <metadata
     id="metadata7">
    <rdf:RDF>
      <cc:Work
         rdf:about="">
        <dc:format>image/svg+xml</dc:format>
        <dc:type
           rdf:resource="http://purl.org/dc/dcmitype/StillImage" />
        <dc:title></dc:title>
      </cc:Work>
    </rdf:RDF>
  </metadata>
  <g
     transform="translate(-149.27232,-238.80357)"
     id="layer1"
     style="display:none">
    <path
       d="m 477.14285,356.64789 a 167.14285,167.14285 0 1 1 -334.2857,0 167.14285,167.14285 0 1 1 334.2857,0 z"
       transform="translate(-11.428571,-71.428571)"
       style="fill:none;stroke:#000000;stroke-width:40;stroke-miterlimit:4;stroke-opacity:0.78306879;stroke-dasharray:none" />
    <path
       d="m 477.14285,356.64789 a 167.14285,167.14285 0 1 1 -334.2857,0 167.14285,167.14285 0 1 1 334.2857,0 z"
       transform="matrix(0.72519083,0,0,0.72519083,146.27631,305.76694)"
       id="path2985-8"
       style="fill:none;stroke:#000000;stroke-width:55.15789413;stroke-miterlimit:4;stroke-opacity:0.78306879;stroke-dasharray:none" />
    <path
       d="m 477.14285,356.64789 a 167.14285,167.14285 0 1 1 -334.2857,0 167.14285,167.14285 0 1 1 334.2857,0 z"
       transform="matrix(1.5477344,0,0,1.5477344,-488.21192,28.394235)"
       id="path2985-8-2"
       style="fill:none;stroke:#000000;stroke-width:25.84422684;stroke-miterlimit:4;stroke-opacity:0.78306879;stroke-dasharray:none" />
    <path
       d="m 477.14285,356.64789 a 167.14285,167.14285 0 1 1 -334.2857,0 167.14285,167.14285 0 1 1 334.2857,0 z"
       transform="matrix(0.86807094,0,0,0.89224553,95.042862,104.81967)"
       id="path2985-8-2-9"
       style="fill:none;stroke:#000000;stroke-width:45.45066071;stroke-miterlimit:4;stroke-opacity:0.78306879;stroke-dasharray:none" />
  </g>
  <g
     transform="translate(-149.27232,-238.80357)"
     id="layer3"
     style="display:inline">
    <path
       d="m 542.66562,655.86607 c -8.69927,13.94573 -19.33006,26.51136 -31.5,37.28125 0.53656,4.24407 0.78125,8.57269 0.78125,12.96875 0,56.13389 -45.05361,101.21875 -101.1875,101.21875 -56.13389,0 -101.21875,-45.08486 -101.21875,-101.21875 0,-0.83533 0.0114,-1.66968 0.0312,-2.5 -13.28039,-9.55927 -25.12608,-21.09455 -35.15625,-34.15625 -3.16144,11.70509 -4.875,23.97782 -4.875,36.65625 0,77.7515 63.46725,141.21875 141.21875,141.21875 77.75149,0 141.1875,-63.46725 141.1875,-141.21875 0,-17.69239 -3.28901,-34.6172 -9.28125,-50.25 z"
       id="path2985-8-6"
       style="font-size:medium;font-style:normal;font-variant:normal;font-weight:normal;font-stretch:normal;text-indent:0;text-align:start;text-decoration:none;line-height:normal;letter-spacing:normal;word-spacing:normal;text-transform:none;direction:ltr;block-progression:tb;writing-mode:lr-tb;text-anchor:start;baseline-shift:baseline;color:#000000;fill:#f2f2f2;fill-opacity:1;stroke:none;stroke-width:55.15789413;marker:none;visibility:visible;display:inline;overflow:visible;enable-background:accumulate;font-family:Sans;-inkscape-font-specification:Sans" />
    <path
       d="m 336.42857,238.80357 c -103.11925,0 -187.15625,84.037 -187.15625,187.15625 0,67.25997 35.76972,126.35401 89.25,159.34375 -0.8764,-7.05239 -1.34375,-14.24048 -1.34375,-21.53125 0,-9.23793 0.72968,-18.31307 2.125,-27.15625 -30.69075,-26.92606 -50.03125,-66.44333 -50.03125,-110.65625 0,-81.50165 65.6546,-147.15625 147.15625,-147.15625 78.31244,0 141.97989,60.60877 146.84375,137.65625 14.51343,8.50123 27.65482,19.20146 39,31.65625 0.86353,-7.27048 1.3125,-14.65875 1.3125,-22.15625 0,-103.11925 -84.037,-187.15625 -187.15625,-187.15625 z"
       id="path4389"
       style="font-size:medium;font-style:normal;font-variant:normal;font-weight:normal;font-stretch:normal;text-indent:0;text-align:start;text-decoration:none;line-height:normal;letter-spacing:normal;word-spacing:normal;text-transform:none;direction:ltr;block-progression:tb;writing-mode:lr-tb;text-anchor:start;baseline-shift:baseline;color:#000000;fill:#f2f2f2;fill-opacity:1;stroke:none;stroke-width:40;marker:none;visibility:visible;display:inline;overflow:visible;enable-background:accumulate;font-family:Sans;-inkscape-font-specification:Sans" />
    <path
       d="m 187.11607,491.05357 24.71875,46.03125 -9.40625,18.3125 c 38.97059,39.96522 63.98772,93.59252 67.3125,153.125 l 13.8125,8.375 24.40625,40.03125 c 1.42602,-11.40129 2.1875,-23.03076 2.1875,-34.8125 0,-96.07532 -48.85586,-180.93692 -123.03125,-231.0625 z"
       id="path2985-8-2-3"
       style="font-size:medium;font-style:normal;font-variant:normal;font-weight:normal;font-stretch:normal;text-indent:0;text-align:start;text-decoration:none;line-height:normal;letter-spacing:normal;word-spacing:normal;text-transform:none;direction:ltr;block-progression:tb;writing-mode:lr-tb;text-anchor:start;baseline-shift:baseline;color:#000000;fill:#f2f2f2;fill-opacity:1;stroke:none;stroke-width:25.84422684;marker:none;visibility:visible;display:inline;overflow:visible;enable-background:accumulate;font-family:Sans;-inkscape-font-specification:Sans" />
  </g>
</svg>
