<?xml version="1.0" encoding="UTF-8" standalone="no"?>
<!-- Created with Inkscape (http://www.inkscape.org/) -->

<svg
   xmlns:dc="http://purl.org/dc/elements/1.1/"
   xmlns:cc="http://creativecommons.org/ns#"
   xmlns:rdf="http://www.w3.org/1999/02/22-rdf-syntax-ns#"
   xmlns:svg="http://www.w3.org/2000/svg"
   xmlns="http://www.w3.org/2000/svg"
   xmlns:xlink="http://www.w3.org/1999/xlink"
   xmlns:sodipodi="http://sodipodi.sourceforge.net/DTD/sodipodi-0.dtd"
   xmlns:inkscape="http://www.inkscape.org/namespaces/inkscape"
   width="882.84076"
   height="322.56763"
   id="svg3587"
   version="1.1"
   inkscape:version="0.48.3.1 r9886"
   sodipodi:docname="hark-logo-v4-display.svg">
  <defs
     id="defs3589">
    <linearGradient
       id="linearGradient4582">
      <stop
         style="stop-color:#f39753;stop-opacity:1;"
         offset="0"
         id="stop4584" />
      <stop
         style="stop-color:#ff6244;stop-opacity:1;"
         offset="1"
         id="stop4586" />
    </linearGradient>
    <linearGradient
       inkscape:collect="always"
       xlink:href="#linearGradient4582"
       id="linearGradient4588"
       x1="629.5838"
       y1="487.13174"
       x2="588.59204"
       y2="1036.6547"
       gradientUnits="userSpaceOnUse"
       gradientTransform="matrix(0.26354146,0,0,0.26354146,-998.03956,117.5806)" />
    <linearGradient
       inkscape:collect="always"
       xlink:href="#linearGradient4582-0"
       id="linearGradient4588-2"
       x1="629.5838"
       y1="487.13174"
       x2="588.59204"
       y2="1036.6547"
       gradientUnits="userSpaceOnUse"
       gradientTransform="matrix(0.26354146,0,0,0.26354146,-998.03956,117.5806)" />
    <linearGradient
       id="linearGradient4582-0">
      <stop
         style="stop-color:#f39753;stop-opacity:1;"
         offset="0"
         id="stop4584-6" />
      <stop
         style="stop-color:#ff6244;stop-opacity:1;"
         offset="1"
         id="stop4586-6" />
    </linearGradient>
    <linearGradient
       inkscape:collect="always"
       xlink:href="#linearGradient4582-0"
       id="linearGradient4928"
       x1="629.5838"
       y1="487.13174"
       x2="588.59204"
       y2="1036.6547"
       gradientUnits="userSpaceOnUse"
       gradientTransform="matrix(0.26354146,0,0,0.26354146,-998.03956,117.5806)" />
    <linearGradient
       id="linearGradient4930">
      <stop
         style="stop-color:#f39753;stop-opacity:1;"
         offset="0"
         id="stop4932" />
      <stop
         style="stop-color:#ff6244;stop-opacity:1;"
         offset="1"
         id="stop4934" />
    </linearGradient>
    <linearGradient
       y2="1036.6547"
       x2="588.59204"
       y1="487.13174"
       x1="629.5838"
       gradientTransform="matrix(0.26354146,0,0,0.26354146,-1058.0265,-382.41941)"
       gradientUnits="userSpaceOnUse"
       id="linearGradient4938"
       xlink:href="#linearGradient4582-0"
       inkscape:collect="always" />
    <linearGradient
       gradientTransform="matrix(0.26354146,0,0,0.26354146,-998.03956,117.5806)"
       gradientUnits="userSpaceOnUse"
       y2="1036.6547"
       x2="588.59204"
       y1="487.13174"
       x1="629.5838"
       id="linearGradient4588-0"
       xlink:href="#linearGradient4582-5"
       inkscape:collect="always" />
    <linearGradient
       id="linearGradient4582-5">
      <stop
         id="stop4584-68"
         offset="0"
         style="stop-color:#f39753;stop-opacity:1;" />
      <stop
         id="stop4586-5"
         offset="1"
         style="stop-color:#ff6244;stop-opacity:1;" />
    </linearGradient>
  </defs>
  <sodipodi:namedview
     id="base"
     pagecolor="#ffffff"
     bordercolor="#666666"
     borderopacity="1.0"
     inkscape:pageopacity="0.0"
     inkscape:pageshadow="2"
     inkscape:zoom="0.49497475"
     inkscape:cx="686.47752"
     inkscape:cy="-75.999518"
     inkscape:document-units="px"
     inkscape:current-layer="layer1-7"
     showgrid="true"
     fit-margin-top="0"
     fit-margin-left="0"
     fit-margin-right="0"
     fit-margin-bottom="0"
     inkscape:window-width="1680"
     inkscape:window-height="1001"
     inkscape:window-x="0"
     inkscape:window-y="25"
     inkscape:window-maximized="1"
     showguides="true"
     inkscape:guide-bbox="true">
    <inkscape:grid
       type="xygrid"
       id="grid4590"
       empspacing="5"
       visible="true"
       enabled="true"
       snapvisiblegridlinesonly="true"
       originx="0px"
       originy="-899.22612px" />
  </sodipodi:namedview>
  <metadata
     id="metadata3592">
    <rdf:RDF>
      <cc:Work
         rdf:about="">
        <dc:format>image/svg+xml</dc:format>
        <dc:type
           rdf:resource="http://purl.org/dc/dcmitype/StillImage" />
        <dc:title></dc:title>
      </cc:Work>
    </rdf:RDF>
  </metadata>
  <g
     inkscape:label="Layer 1"
     inkscape:groupmode="layer"
     id="layer1"
     transform="translate(1355.1877,-159.65678)">
    <text
       xml:space="preserve"
       style="font-size:281.25363159px;font-style:normal;font-variant:normal;font-weight:normal;font-stretch:normal;line-height:125%;letter-spacing:0px;word-spacing:0px;fill:url(#linearGradient4938);fill-opacity:1;stroke:none;font-family:Ranger;-inkscape-font-specification:Ranger"
       x="-1155.1877"
       y="-78.549477"
       id="text4406-3-2-4"
       sodipodi:linespacing="125%"><tspan
         sodipodi:role="line"
         id="tspan4408-7-4-0"
         x="-1155.1877"
         y="-78.549477"
         style="font-style:normal;font-variant:normal;font-weight:normal;font-stretch:normal;fill:url(#linearGradient4938);fill-opacity:1;font-family:Governor;-inkscape-font-specification:Governor">ARK</tspan></text>
    <g
       id="layer1-7"
       inkscape:label="Layer 1"
       transform="translate(0,-0.19955305)">
      <g
         style="font-size:281.25363159px;font-style:normal;font-variant:normal;font-weight:normal;font-stretch:normal;line-height:125%;letter-spacing:0px;word-spacing:0px;fill:url(#linearGradient4588-0);fill-opacity:1;stroke:none;font-family:Ranger;-inkscape-font-specification:Ranger"
         id="text4406-3-2-6">
        <path
           d="m -942.76122,421.73178 -10.68763,-30.37539 -83.25105,0 -10.6877,30.37539 -46.6881,0 73.6885,-206.44016 50.62564,0 73.68845,206.44016 -46.68811,0 m -78.75098,-72.84469 52.87565,0 -26.43784,-73.9697 -26.43781,73.9697"
           style="font-family:Governor;-inkscape-font-specification:Governor"
           id="path5507" />
        <path
           d="m -713.39449,348.32459 c 5.43739,4.87513 10.12494,10.40644 14.06268,16.59396 3.93736,6.00013 7.1249,12.28145 9.56263,18.84399 2.62483,6.37512 4.49985,12.84395 5.62507,19.4065 1.1248,6.5626 1.68731,12.75018 1.68752,18.56274 l -21.09402,0 -21.37528,0 c -1.6e-4,-1.31251 -0.18767,-3.46879 -0.56251,-6.46883 -0.18766,-3.18753 -0.75017,-6.65632 -1.68752,-10.40638 -0.93767,-3.75003 -2.34394,-7.59383 -4.2188,-11.5314 -1.87518,-3.93752 -4.50021,-7.59381 -7.8751,-10.96889 -3.18769,-3.375 -7.21899,-6.09379 -12.09391,-8.15636 -4.8752,-2.06248 -10.78152,-3.09374 -17.71898,-3.09379 l -50.90691,0 0,50.62565 -42.18804,0 0,-206.72141 93.09495,0 c 0.74989,2e-4 2.81241,0.1877 6.18758,0.5625 3.37491,0.18771 7.40621,1.03147 12.09391,2.53129 4.87492,1.31271 10.12498,3.37524 15.7502,6.18758 5.62491,2.81273 11.06248,6.84402 16.31271,12.0939 15.56251,15.56287 23.34386,36.93813 23.34405,64.12583 -1.9e-4,10.68775 -1.68771,19.96911 -5.06256,27.84411 -3.18773,7.87519 -7.50028,14.53152 -12.93767,19.96901 m -55.68822,-19.68776 c 2.24991,1e-4 5.15619,-0.28116 8.71886,-0.84376 3.56242,-0.74991 7.03121,-2.06243 10.40639,-3.93755 3.3749,-2.06243 6.18743,-4.87496 8.43761,-8.43761 2.43738,-3.74994 3.65614,-8.71875 3.65629,-14.90644 -1.5e-4,-9.75 -1.31266,-17.43759 -3.93755,-23.0628 -2.43767,-5.81242 -5.43771,-10.12497 -9.00011,-12.93767 -3.37518,-2.99987 -6.84397,-4.8749 -10.40639,-5.62507 -3.56267,-0.93735 -6.28145,-1.4061 -8.15635,-1.40627 l -50.62566,0 0,71.15717 50.90691,0"
           style="font-family:Governor;-inkscape-font-specification:Governor"
           id="path5509" />
        <path
           d="m -494.00346,215.01037 c -1.8e-4,10.50033 -0.75019,20.25044 -2.25003,29.25037 -1.3127,8.81279 -3.18772,16.96913 -5.62507,24.46907 -2.25021,7.31274 -4.87524,13.96907 -7.8751,19.96901 -3.00021,5.8127 -6.00024,10.96901 -9.00012,15.46895 -7.31275,10.68774 -15.46909,19.31284 -24.46906,25.87533 8.81246,9e-5 16.59381,1.31261 23.34405,3.93755 6.74992,2.62512 12.56249,6.09391 17.43772,10.40639 5.06238,4.31262 9.28119,9.28143 12.65642,14.90644 3.37485,5.43763 6.18738,10.96894 8.4376,16.59396 5.06237,13.50021 8.0624,28.78164 9.00012,45.84434 l -42.4693,0 c -1.6e-4,-6.18757 -0.65642,-11.62513 -1.96877,-16.31271 -1.31268,-4.87504 -3.0002,-9.09384 -5.06257,-12.65641 -2.06268,-3.56251 -4.40646,-6.56255 -7.03134,-9.00012 -2.62518,-2.43749 -5.34396,-4.50001 -8.15635,-6.18758 -6.37522,-3.75 -13.68781,-5.90627 -21.93779,-6.46883 l -50.90691,0 0,50.62565 -42.18804,0 0,-206.72141 42.18804,0 0,93.93871 c 8.81254,1.1e-4 16.59388,-1.3124 23.34406,-3.93755 6.93749,-2.81242 12.93756,-6.37496 18.00023,-10.68764 5.06245,-4.31242 9.375,-9.28123 12.93767,-14.90644 3.74992,-5.62493 6.8437,-11.4375 9.28137,-17.43773 5.62493,-13.6875 9.18747,-29.34394 10.68763,-46.96935 l 41.62554,0"
           style="font-family:Governor;-inkscape-font-specification:Governor"
           id="path5511" />
      </g>
      <path
         sodipodi:nodetypes="cccc"
         inkscape:connector-curvature="0"
         id="path4150-2-8-3-4-8-2"
         d="m -1355.1877,191.8561 0,32.19934 32.1993,0 z"
         style="fill:#f39753;fill-opacity:1;stroke:none" />
      <path
         sodipodi:nodetypes="cccc"
         inkscape:connector-curvature="0"
         id="path4150-7-2-3-1-1-8-1"
         d="m -1322.9884,224.05544 0,-32.19934 -32.1993,0 z"
         style="fill:#ff6244;fill-opacity:1;stroke:none" />
      <path
         sodipodi:nodetypes="cccc"
         inkscape:connector-curvature="0"
         id="path4150-8-9-0-5-1-8-8"
         d="m -1322.9884,256.25473 0,-32.19929 -32.1993,0 z"
         style="fill:#ff6244;fill-opacity:1;stroke:none" />
      <path
         sodipodi:nodetypes="cccc"
         inkscape:connector-curvature="0"
         id="path4150-77-4-12-7-1-2-6"
         d="m -1322.9884,224.05544 0,32.19929 32.1994,0 z"
         style="fill:#edef79;fill-opacity:1;stroke:none" />
      <path
         sodipodi:nodetypes="cccc"
         inkscape:connector-curvature="0"
         id="path4150-5-1-9-8-2-8-0"
         d="m -1290.789,288.45407 0,-32.19934 -32.1994,0 z"
         style="fill:#ff7f2a;stroke:none" />
      <path
         sodipodi:nodetypes="cccc"
         inkscape:connector-curvature="0"
         id="path4150-9-9-0-5-0-4-1"
         d="m -1290.789,256.25473 0,32.19934 32.1993,0 z"
         style="fill:#ff7f2a;stroke:none" />
      <path
         sodipodi:nodetypes="cccc"
         inkscape:connector-curvature="0"
         id="path4150-50-6-3-8-8-3-7"
         d="m -1290.789,256.25473 0,-32.19929 -32.1994,0 z"
         style="fill:#f39753;fill-opacity:1;stroke:none" />
      <path
         sodipodi:nodetypes="cccc"
         inkscape:connector-curvature="0"
         id="path4150-8-5-0-9-8-3-3-5-4"
         d="m -1290.789,288.45407 0,-32.19934 -32.1994,0 z"
         style="fill:#ff6244;fill-opacity:1;stroke:none" />
      <path
         sodipodi:nodetypes="cccc"
         inkscape:connector-curvature="0"
         id="path4150-50-20-8-8-2-6-8-8"
         d="m -1258.5897,288.45407 0,-32.19934 -32.1993,0 z"
         style="fill:#f39753;fill-opacity:1;stroke:none" />
      <path
         sodipodi:nodetypes="cccc"
         inkscape:connector-curvature="0"
         id="path4150-8-5-25-57-4-8-0-8"
         d="m -1290.789,224.05544 0,32.19929 32.1993,0 z"
         style="fill:#ff6244;fill-opacity:1;stroke:none" />
      <path
         sodipodi:nodetypes="cccc"
         inkscape:connector-curvature="0"
         id="path4150-1-54-7-1-2-8-5"
         d="m -1322.9884,191.8561 0,32.19934 32.1994,0 z"
         style="fill:#edef79;fill-opacity:1;stroke:none" />
      <path
         sodipodi:nodetypes="cccc"
         inkscape:connector-curvature="0"
         id="path4150-0-9-0-1-2-9-5"
         d="m -1355.1877,159.65678 0,32.19932 32.1993,0 z"
         style="fill:#f39753;fill-opacity:1;stroke:none" />
      <path
         sodipodi:nodetypes="cccc"
         inkscape:connector-curvature="0"
         id="path4150-77-8-1-8-5-3-0-2"
         d="m -1290.789,256.25473 0,32.19934 32.1993,0 z"
         style="fill:#edef79;fill-opacity:1;stroke:none" />
      <path
         sodipodi:nodetypes="cccc"
         inkscape:connector-curvature="0"
         id="path4150-8-5-2-2-9-9-7-42-7"
         d="m -1258.5897,320.65347 0,-32.1994 -32.1993,0 z"
         style="fill:#ff6244;fill-opacity:1;stroke:none" />
      <path
         sodipodi:nodetypes="cccc"
         inkscape:connector-curvature="0"
         id="path4150-77-8-7-50-3-5-9-8-4"
         d="m -1258.5897,288.45407 0,32.19937 32.1993,0 z"
         style="fill:#edef79;fill-opacity:1;stroke:none" />
      <path
         sodipodi:nodetypes="cccc"
         inkscape:connector-curvature="0"
         id="path4150-50-20-3-8-0-1-4-7-8"
         d="m -1290.789,288.45407 0,32.19937 32.1993,0 z"
         style="fill:#f39753;fill-opacity:1;stroke:none" />
      <path
         sodipodi:nodetypes="cccc"
         inkscape:connector-curvature="0"
         id="path4150-8-5-2-0-5-5-2-3-7-0-2-6-1"
         d="m -1355.1877,449.45076 32.1993,0 0,-32.19933 z"
         style="fill:#ff6244;fill-opacity:1;stroke:none" />
      <path
         sodipodi:nodetypes="cccc"
         inkscape:connector-curvature="0"
         id="path4150-50-20-3-0-1-0-5-93-4-6-5-8-6"
         d="m -1322.9884,417.25143 -32.1993,0 0,32.19933 z"
         style="fill:#f39753;fill-opacity:1;stroke:none" />
      <path
         sodipodi:nodetypes="cccc"
         inkscape:connector-curvature="0"
         id="path4150-8-5-2-0-5-5-8-9-7-4-1-1-9"
         d="m -1355.1877,417.25143 32.1993,0 0,-32.19931 z"
         style="fill:#ff6244;fill-opacity:1;stroke:none" />
      <path
         sodipodi:nodetypes="cccc"
         inkscape:connector-curvature="0"
         id="path4150-77-8-7-9-1-7-6-83-5-1-7-7"
         d="m -1290.789,385.05212 -32.1994,0 0,32.19931 z"
         style="fill:#edef79;fill-opacity:1;stroke:none" />
      <path
         sodipodi:nodetypes="cccc"
         inkscape:connector-curvature="0"
         id="path4150-50-20-3-0-1-7-7-3-5-74-1"
         d="m -1322.9884,385.05212 32.1994,0 0,-32.19932 z"
         style="fill:#f39753;fill-opacity:1;stroke:none" />
      <path
         sodipodi:nodetypes="cccc"
         inkscape:connector-curvature="0"
         id="path4150-8-5-2-0-5-9-1-0-2-8-7"
         d="m -1258.5897,352.8528 -32.1993,0 0,32.19932 z"
         style="fill:#ff6244;fill-opacity:1;stroke:none" />
      <path
         sodipodi:nodetypes="cccc"
         inkscape:connector-curvature="0"
         id="path4150-50-20-3-0-1-0-9-0-8-3-0-5"
         d="m -1322.9884,417.25143 32.1994,0 0,-32.19931 z"
         style="fill:#f39753;fill-opacity:1;stroke:none" />
      <path
         sodipodi:nodetypes="cccc"
         inkscape:connector-curvature="0"
         id="path4150-77-8-7-9-1-76-08-9-3-3-6"
         d="m -1290.789,385.05212 32.1993,0 0,-32.19932 z"
         style="fill:#edef79;fill-opacity:1;stroke:none" />
      <path
         sodipodi:nodetypes="cccc"
         inkscape:connector-curvature="0"
         id="path4150-8-5-2-0-5-5-9-34-1-0-7-8"
         d="m -1258.5897,385.05212 -32.1993,0 0,32.19931 z"
         style="fill:#ff6244;fill-opacity:1;stroke:none" />
      <path
         sodipodi:nodetypes="cccc"
         inkscape:connector-curvature="0"
         id="path4150-77-8-7-9-1-7-8-7-3-5-3-0-4-8"
         d="m -1322.9884,449.45076 -32.1993,0 0,32.19932 z"
         style="fill:#edef79;fill-opacity:1;stroke:none" />
      <path
         sodipodi:nodetypes="cccc"
         inkscape:connector-curvature="0"
         id="path4150-77-8-7-9-1-7-8-5-01-4-9-91-9"
         d="m -1290.789,417.25143 -32.1994,0 0,32.19933 z"
         style="fill:#edef79;fill-opacity:1;stroke:none" />
      <path
         sodipodi:nodetypes="cccc"
         inkscape:connector-curvature="0"
         id="path4150-50-20-3-0-1-0-5-9-7-4-7-9-3-4"
         d="m -1355.1877,481.65008 32.1993,0 0,-32.19932 z"
         style="fill:#f39753;fill-opacity:1;stroke:none" />
      <path
         sodipodi:nodetypes="cccc"
         inkscape:connector-curvature="0"
         id="path4150-50-20-3-0-6-56-4-8-7-7"
         d="m -1290.789,352.8528 32.1993,0 0,-32.19933 z"
         style="fill:#f39753;fill-opacity:1;stroke:none" />
      <path
         sodipodi:nodetypes="cccc"
         inkscape:connector-curvature="0"
         id="path4150-8-5-2-0-65-2-6-5-9-8"
         d="m -1226.3904,320.65347 -32.1993,0 0,32.19933 z"
         style="fill:#ff6244;fill-opacity:1;stroke:none" />
      <path
         sodipodi:nodetypes="cccc"
         inkscape:connector-curvature="0"
         id="path4150-77-8-7-9-8-03-3-3-1-6"
         d="m -1258.5897,320.65347 -32.1993,0 0,32.19933 z"
         style="fill:#edef79;fill-opacity:1;stroke:none" />
      <path
         sodipodi:nodetypes="cccc"
         inkscape:connector-curvature="0"
         id="path4150-47-2-2-5-6-3-9-1"
         d="m -1322.9884,191.8561 0,-32.19932 -32.1993,0 z"
         style="fill:#edef79;fill-opacity:1;stroke:none" />
      <path
         sodipodi:nodetypes="cccc"
         inkscape:connector-curvature="0"
         id="path4150-2-8-3-4-6-9"
         d="m -1231.3232,192.43047 0,32.19932 32.1993,0 z"
         style="fill:#f39753;fill-opacity:1;stroke:none" />
      <path
         sodipodi:nodetypes="cccc"
         inkscape:connector-curvature="0"
         id="path4150-7-2-3-1-1-9-4"
         d="m -1199.1239,224.62979 0,-32.19932 -32.1993,0 z"
         style="fill:#ff6244;fill-opacity:1;stroke:none" />
      <path
         sodipodi:nodetypes="cccc"
         inkscape:connector-curvature="0"
         id="path4150-8-9-0-5-1-7-9"
         d="m -1199.1239,256.82908 0,-32.19929 -32.1993,0 z"
         style="fill:#ff6244;fill-opacity:1;stroke:none" />
      <path
         sodipodi:nodetypes="cccc"
         inkscape:connector-curvature="0"
         id="path4150-77-4-12-7-1-5-1"
         d="m -1199.1239,224.62979 0,32.19929 32.1993,0 z"
         style="fill:#edef79;fill-opacity:1;stroke:none" />
      <path
         sodipodi:nodetypes="cccc"
         inkscape:connector-curvature="0"
         id="path4150-5-1-9-8-2-2-5"
         d="m -1166.9246,289.02841 0,-32.19933 -32.1993,0 z"
         style="fill:#ff7f2a;stroke:none" />
      <path
         sodipodi:nodetypes="cccc"
         inkscape:connector-curvature="0"
         id="path4150-9-9-0-5-0-2-7"
         d="m -1166.9246,256.82908 0,32.19933 32.1994,0 z"
         style="fill:#ff7f2a;stroke:none" />
      <path
         sodipodi:nodetypes="cccc"
         inkscape:connector-curvature="0"
         id="path4150-50-6-3-8-8-4-7"
         d="m -1166.9246,256.82908 0,-32.19929 -32.1993,0 z"
         style="fill:#f39753;fill-opacity:1;stroke:none" />
      <path
         sodipodi:nodetypes="cccc"
         inkscape:connector-curvature="0"
         id="path4150-8-5-0-9-8-3-3-9-3"
         d="m -1166.9246,289.02841 0,-32.19933 -32.1993,0 z"
         style="fill:#ff6244;fill-opacity:1;stroke:none" />
      <path
         sodipodi:nodetypes="cccc"
         inkscape:connector-curvature="0"
         id="path4150-50-20-8-8-2-6-4-7"
         d="m -1134.7252,289.02841 0,-32.19933 -32.1994,0 z"
         style="fill:#f39753;fill-opacity:1;stroke:none" />
      <path
         sodipodi:nodetypes="cccc"
         inkscape:connector-curvature="0"
         id="path4150-8-5-25-57-4-8-8-2"
         d="m -1166.9246,224.62979 0,32.19929 32.1994,0 z"
         style="fill:#ff6244;fill-opacity:1;stroke:none" />
      <path
         sodipodi:nodetypes="cccc"
         inkscape:connector-curvature="0"
         id="path4150-1-54-7-1-2-6-1"
         d="m -1199.1239,192.43047 0,32.19932 32.1993,0 z"
         style="fill:#edef79;fill-opacity:1;stroke:none" />
      <path
         sodipodi:nodetypes="cccc"
         inkscape:connector-curvature="0"
         id="path4150-0-9-0-1-2-1-9"
         d="m -1231.3232,160.23113 0,32.19934 32.1993,0 z"
         style="fill:#f39753;fill-opacity:1;stroke:none" />
      <path
         sodipodi:nodetypes="cccc"
         inkscape:connector-curvature="0"
         id="path4150-77-8-1-8-5-3-7-9"
         d="m -1166.9246,256.82908 0,32.19933 32.1994,0 z"
         style="fill:#edef79;fill-opacity:1;stroke:none" />
      <path
         sodipodi:nodetypes="cccc"
         inkscape:connector-curvature="0"
         id="path4150-8-5-2-2-9-9-7-4-5"
         d="m -1134.7252,321.22782 0,-32.19941 -32.1994,0 z"
         style="fill:#ff6244;fill-opacity:1;stroke:none" />
      <path
         sodipodi:nodetypes="cccc"
         inkscape:connector-curvature="0"
         id="path4150-77-8-7-50-3-5-9-4-7"
         d="m -1134.7252,289.02841 0,32.19941 32.1993,0 z"
         style="fill:#edef79;fill-opacity:1;stroke:none" />
      <path
         sodipodi:nodetypes="cccc"
         inkscape:connector-curvature="0"
         id="path4150-50-20-3-8-0-1-4-0-2"
         d="m -1166.9246,289.02841 0,32.19941 32.1994,0 z"
         style="fill:#f39753;fill-opacity:1;stroke:none" />
      <path
         sodipodi:nodetypes="cccc"
         inkscape:connector-curvature="0"
         id="path4150-8-5-2-0-5-5-2-3-7-0-2-9-1"
         d="m -1231.3232,450.0251 32.1993,0 0,-32.19934 z"
         style="fill:#ff6244;fill-opacity:1;stroke:none" />
      <path
         sodipodi:nodetypes="cccc"
         inkscape:connector-curvature="0"
         id="path4150-50-20-3-0-1-0-5-93-4-6-5-0-9"
         d="m -1199.1239,417.82576 -32.1993,0 0,32.19934 z"
         style="fill:#f39753;fill-opacity:1;stroke:none" />
      <path
         sodipodi:nodetypes="cccc"
         inkscape:connector-curvature="0"
         id="path4150-8-5-2-0-5-5-8-9-7-4-1-4-0"
         d="m -1231.3232,417.82576 32.1993,0 0,-32.1993 z"
         style="fill:#ff6244;fill-opacity:1;stroke:none" />
      <path
         sodipodi:nodetypes="cccc"
         inkscape:connector-curvature="0"
         id="path4150-77-8-7-9-1-7-6-83-5-1-3-4"
         d="m -1166.9246,385.62646 -32.1993,0 0,32.1993 z"
         style="fill:#edef79;fill-opacity:1;stroke:none" />
      <path
         sodipodi:nodetypes="cccc"
         inkscape:connector-curvature="0"
         id="path4150-50-20-3-0-1-7-7-3-5-7-8"
         d="m -1199.1239,385.62646 32.1993,0 0,-32.19931 z"
         style="fill:#f39753;fill-opacity:1;stroke:none" />
      <path
         sodipodi:nodetypes="cccc"
         inkscape:connector-curvature="0"
         id="path4150-8-5-2-0-5-9-1-0-2-3-5"
         d="m -1134.7252,353.42715 -32.1994,0 0,32.19931 z"
         style="fill:#ff6244;fill-opacity:1;stroke:none" />
      <path
         sodipodi:nodetypes="cccc"
         inkscape:connector-curvature="0"
         id="path4150-50-20-3-0-1-0-9-0-8-3-3-0"
         d="m -1199.1239,417.82576 32.1993,0 0,-32.1993 z"
         style="fill:#f39753;fill-opacity:1;stroke:none" />
      <path
         sodipodi:nodetypes="cccc"
         inkscape:connector-curvature="0"
         id="path4150-77-8-7-9-1-76-08-9-3-0-6"
         d="m -1166.9246,385.62646 32.1994,0 0,-32.19931 z"
         style="fill:#edef79;fill-opacity:1;stroke:none" />
      <path
         sodipodi:nodetypes="cccc"
         inkscape:connector-curvature="0"
         id="path4150-8-5-2-0-5-5-9-34-1-0-2-6"
         d="m -1134.7252,385.62646 -32.1994,0 0,32.1993 z"
         style="fill:#ff6244;fill-opacity:1;stroke:none" />
      <path
         sodipodi:nodetypes="cccc"
         inkscape:connector-curvature="0"
         id="path4150-77-8-7-9-1-7-8-7-3-5-3-0-1-1"
         d="m -1199.1239,450.0251 -32.1993,0 0,32.19931 z"
         style="fill:#edef79;fill-opacity:1;stroke:none" />
      <path
         sodipodi:nodetypes="cccc"
         inkscape:connector-curvature="0"
         id="path4150-77-8-7-9-1-7-8-5-01-4-9-9-3"
         d="m -1166.9246,417.82576 -32.1993,0 0,32.19934 z"
         style="fill:#edef79;fill-opacity:1;stroke:none" />
      <path
         sodipodi:nodetypes="cccc"
         inkscape:connector-curvature="0"
         id="path4150-50-20-3-0-1-0-5-9-7-4-7-9-2-3"
         d="m -1231.3232,482.22441 32.1993,0 0,-32.19931 z"
         style="fill:#f39753;fill-opacity:1;stroke:none" />
      <path
         sodipodi:nodetypes="cccc"
         inkscape:connector-curvature="0"
         id="path4150-50-20-3-0-6-56-4-8-0-9"
         d="m -1166.9246,353.42715 32.1994,0 0,-32.19933 z"
         style="fill:#f39753;fill-opacity:1;stroke:none" />
      <path
         sodipodi:nodetypes="cccc"
         inkscape:connector-curvature="0"
         id="path4150-8-5-2-0-65-2-6-5-3-9"
         d="m -1102.5259,321.22782 -32.1993,0 0,32.19933 z"
         style="fill:#ff6244;fill-opacity:1;stroke:none" />
      <path
         sodipodi:nodetypes="cccc"
         inkscape:connector-curvature="0"
         id="path4150-77-8-7-9-8-03-3-3-7-7"
         d="m -1134.7252,321.22782 -32.1994,0 0,32.19933 z"
         style="fill:#edef79;fill-opacity:1;stroke:none" />
      <path
         sodipodi:nodetypes="cccc"
         inkscape:connector-curvature="0"
         id="path4150-47-2-2-5-6-3-7-0"
         d="m -1199.1239,192.43047 0,-32.19934 -32.1993,0 z"
         style="fill:#edef79;fill-opacity:1;stroke:none" />
    </g>
  </g>
</svg>
